<?xml version="1.0" encoding="UTF-8" standalone="no"?>
<svg id="svg4155" xmlns:rdf="http://www.w3.org/1999/02/22-rdf-syntax-ns#" xmlns="http://www.w3.org/2000/svg" viewBox="0 0 1600 183.47461" height="51.781mm" width="451.56mm" version="1.1" xmlns:cc="http://creativecommons.org/ns#" xmlns:dc="http://purl.org/dc/elements/1.1/">
<g id="layer1" transform="translate(928.07 -6.9473)">
<path id="path7732" d="m-928.07 6.9473v183.47h200 200 200 200 200 200 200 200v-183.47h-200-200-200-200-200-200-200-200zm10.793 9.7793h6.4082c1.3079 0 2.3613 1.0531 2.3613 2.3633v11.129c0 1.3064-1.0534 2.3613-2.3613 2.3613h-6.4082c-1.3079 0-2.3613-1.055-2.3613-2.3613v-11.129c0-1.3102 1.0534-2.3633 2.3613-2.3633zm25.107 0h6.4043c1.3102 0 2.3633 1.0531 2.3633 2.3633v11.129c0 1.3064-1.0531 2.3613-2.3633 2.3613h-6.4043c-1.3102 0-2.3613-1.055-2.3613-2.3613v-11.129c0-1.3102 1.0511-2.3633 2.3613-2.3633zm25.094 0h6.4102c1.3064 0 2.3574 1.0531 2.3574 2.3633v11.129c0 1.3064-1.0511 2.3613-2.3574 2.3613h-6.4102c-1.3102 0-2.3613-1.055-2.3613-2.3613v-11.129c0-1.3102 1.0511-2.3633 2.3613-2.3633zm25.104 0h6.4082c1.3102 0 2.3613 1.0531 2.3613 2.3633v11.129c0 1.3064-1.0511 2.3613-2.3613 2.3613h-6.4082c-1.3064 0-2.3594-1.055-2.3594-2.3613v-11.129c0-1.3102 1.053-2.3633 2.3594-2.3633zm25.105 0h6.4082c1.3102 0 2.3633 1.0531 2.3633 2.3633v11.129c0 1.3064-1.0531 2.3613-2.3633 2.3613h-6.4082c-1.3064 0-2.3574-1.055-2.3574-2.3613v-11.129c0-1.3102 1.0511-2.3633 2.3574-2.3633zm25.105 0h6.4082c1.3064 0 2.3633 1.0531 2.3633 2.3633v11.129c0 1.3064-1.0569 2.3613-2.3633 2.3613h-6.4082c-1.3064 0-2.3574-1.055-2.3574-2.3613v-11.129c0-1.3102 1.0511-2.3633 2.3574-2.3633zm25.096 0h6.4082c1.3102 0 2.3613 1.0531 2.3613 2.3633v11.129c0 1.3064-1.0511 2.3613-2.3613 2.3613h-6.4082c-1.3064 0-2.3594-1.055-2.3594-2.3613v-11.129c0-1.3102 1.053-2.3633 2.3594-2.3633zm25.105 0h6.4082c1.3064 0 2.3613 1.0531 2.3613 2.3633v11.129c0 1.3064-1.055 2.3613-2.3613 2.3613h-6.4082c-1.3064 0-2.3594-1.055-2.3594-2.3613v-11.129c0-1.3102 1.053-2.3633 2.3594-2.3633zm24.283 0h6.4082c1.3079 0 2.3613 1.0531 2.3613 2.3633v11.129c0 1.3064-1.0534 2.3613-2.3613 2.3613h-6.4082c-1.3079 0-2.3613-1.055-2.3613-2.3613v-11.129c0-1.3102 1.0534-2.3633 2.3613-2.3633zm25.107 0h6.4043c1.3102 0 2.3633 1.0531 2.3633 2.3633v11.129c0 1.3064-1.0531 2.3613-2.3633 2.3613h-6.4043c-1.3102 0-2.3613-1.055-2.3613-2.3613v-11.129c0-1.3102 1.0511-2.3633 2.3613-2.3633zm25.094 0h6.4102c1.3064 0 2.3574 1.0531 2.3574 2.3633v11.129c0 1.3064-1.0511 2.3613-2.3574 2.3613h-6.4102c-1.3102 0-2.3613-1.055-2.3613-2.3613v-11.129c0-1.3102 1.0511-2.3633 2.3613-2.3633zm25.104 0h6.4082c1.3102 0 2.3613 1.0531 2.3613 2.3633v11.129c0 1.3064-1.0511 2.3613-2.3613 2.3613h-6.4082c-1.3064 0-2.3594-1.055-2.3594-2.3613v-11.129c0-1.3102 1.053-2.3633 2.3594-2.3633zm25.105 0h6.4082c1.3102 0 2.3633 1.0531 2.3633 2.3633v11.129c0 1.3064-1.0531 2.3613-2.3633 2.3613h-6.4082c-1.3064 0-2.3574-1.055-2.3574-2.3613v-11.129c0-1.3102 1.0511-2.3633 2.3574-2.3633zm25.105 0h6.4082c1.3064 0 2.3633 1.0531 2.3633 2.3633v11.129c0 1.3064-1.0569 2.3613-2.3633 2.3613h-6.4082c-1.3064 0-2.3574-1.055-2.3574-2.3613v-11.129c0-1.3102 1.0511-2.3633 2.3574-2.3633zm25.096 0h6.4082c1.3102 0 2.3613 1.0531 2.3613 2.3633v11.129c0 1.3064-1.0511 2.3613-2.3613 2.3613h-6.4082c-1.3064 0-2.3594-1.055-2.3594-2.3613v-11.129c0-1.3102 1.053-2.3633 2.3594-2.3633zm25.105 0h6.4082c1.3064 0 2.3613 1.0531 2.3613 2.3633v11.129c0 1.3064-1.055 2.3613-2.3613 2.3613h-6.4082c-1.3064 0-2.3594-1.055-2.3594-2.3613v-11.129c0-1.3102 1.053-2.3633 2.3594-2.3633zm24.283 0h6.4082c1.3079 0 2.3613 1.0531 2.3613 2.3633v11.129c0 1.3064-1.0534 2.3613-2.3613 2.3613h-6.4082c-1.3079 0-2.3613-1.055-2.3613-2.3613v-11.129c0-1.3102 1.0534-2.3633 2.3613-2.3633zm25.107 0h6.4043c1.3102 0 2.3633 1.0531 2.3633 2.3633v11.129c0 1.3064-1.0531 2.3613-2.3633 2.3613h-6.4043c-1.3102 0-2.3613-1.055-2.3613-2.3613v-11.129c0-1.3102 1.0511-2.3633 2.3613-2.3633zm25.094 0h6.4102c1.3064 0 2.3574 1.0531 2.3574 2.3633v11.129c0 1.3064-1.0511 2.3613-2.3574 2.3613h-6.4102c-1.3102 0-2.3613-1.055-2.3613-2.3613v-11.129c0-1.3102 1.0511-2.3633 2.3613-2.3633zm25.104 0h6.4082c1.3102 0 2.3613 1.0531 2.3613 2.3633v11.129c0 1.3064-1.0511 2.3613-2.3613 2.3613h-6.4082c-1.3064 0-2.3594-1.055-2.3594-2.3613v-11.129c0-1.3102 1.053-2.3633 2.3594-2.3633zm25.105 0h6.4082c1.3102 0 2.3633 1.0531 2.3633 2.3633v11.129c0 1.3064-1.0531 2.3613-2.3633 2.3613h-6.4082c-1.3064 0-2.3574-1.055-2.3574-2.3613v-11.129c0-1.3102 1.0511-2.3633 2.3574-2.3633zm25.105 0h6.4082c1.3064 0 2.3633 1.0531 2.3633 2.3633v11.129c0 1.3064-1.0569 2.3613-2.3633 2.3613h-6.4082c-1.3064 0-2.3574-1.055-2.3574-2.3613v-11.129c0-1.3102 1.0511-2.3633 2.3574-2.3633zm25.096 0h6.4082c1.3102 0 2.3613 1.0531 2.3613 2.3633v11.129c0 1.3064-1.0511 2.3613-2.3613 2.3613h-6.4082c-1.3064 0-2.3594-1.055-2.3594-2.3613v-11.129c0-1.3102 1.053-2.3633 2.3594-2.3633zm25.105 0h6.4082c1.3064 0 2.3613 1.0531 2.3613 2.3633v11.129c0 1.3064-1.055 2.3613-2.3613 2.3613h-6.4082c-1.3064 0-2.3594-1.055-2.3594-2.3613v-11.129c0-1.3102 1.053-2.3633 2.3594-2.3633zm24.283 0h6.4082c1.3079 0 2.3613 1.0531 2.3613 2.3633v11.129c0 1.3064-1.0534 2.3613-2.3613 2.3613h-6.4082c-1.3079 0-2.3613-1.055-2.3613-2.3613v-11.129c0-1.3102 1.0534-2.3633 2.3613-2.3633zm25.107 0h6.4043c1.3102 0 2.3633 1.0531 2.3633 2.3633v11.129c0 1.3064-1.0531 2.3613-2.3633 2.3613h-6.4043c-1.3102 0-2.3613-1.055-2.3613-2.3613v-11.129c0-1.3102 1.0511-2.3633 2.3613-2.3633zm25.094 0h6.4102c1.3064 0 2.3574 1.0531 2.3574 2.3633v11.129c0 1.3064-1.0511 2.3613-2.3574 2.3613h-6.4102c-1.3102 0-2.3613-1.055-2.3613-2.3613v-11.129c0-1.3102 1.0511-2.3633 2.3613-2.3633zm25.104 0h6.4082c1.3102 0 2.3613 1.0531 2.3613 2.3633v11.129c0 1.3064-1.0511 2.3613-2.3613 2.3613h-6.4082c-1.3064 0-2.3594-1.055-2.3594-2.3613v-11.129c0-1.3102 1.053-2.3633 2.3594-2.3633zm25.105 0h6.4082c1.3102 0 2.3633 1.0531 2.3633 2.3633v11.129c0 1.3064-1.0531 2.3613-2.3633 2.3613h-6.4082c-1.3064 0-2.3574-1.055-2.3574-2.3613v-11.129c0-1.3102 1.0511-2.3633 2.3574-2.3633zm25.105 0h6.4082c1.3064 0 2.3633 1.0531 2.3633 2.3633v11.129c0 1.3064-1.0569 2.3613-2.3633 2.3613h-6.4082c-1.3064 0-2.3574-1.055-2.3574-2.3613v-11.129c0-1.3102 1.0511-2.3633 2.3574-2.3633zm25.096 0h6.4082c1.3102 0 2.3613 1.0531 2.3613 2.3633v11.129c0 1.3064-1.0511 2.3613-2.3613 2.3613h-6.4082c-1.3064 0-2.3594-1.055-2.3594-2.3613v-11.129c0-1.3102 1.053-2.3633 2.3594-2.3633zm25.105 0h6.4082c1.3064 0 2.3613 1.0531 2.3613 2.3633v11.129c0 1.3064-1.055 2.3613-2.3613 2.3613h-6.4082c-1.3064 0-2.3594-1.055-2.3594-2.3613v-11.129c0-1.3102 1.053-2.3633 2.3594-2.3633zm24.283 0h6.4082c1.3079 0 2.3613 1.0531 2.3613 2.3633v11.129c0 1.3064-1.0534 2.3613-2.3613 2.3613h-6.4082c-1.3079 0-2.3613-1.055-2.3613-2.3613v-11.129c0-1.3102 1.0534-2.3633 2.3613-2.3633zm25.107 0h6.4043c1.3102 0 2.3633 1.0531 2.3633 2.3633v11.129c0 1.3064-1.0531 2.3613-2.3633 2.3613h-6.4043c-1.3102 0-2.3613-1.055-2.3613-2.3613v-11.129c0-1.3102 1.0511-2.3633 2.3613-2.3633zm25.094 0h6.4102c1.3064 0 2.3574 1.0531 2.3574 2.3633v11.129c0 1.3064-1.0511 2.3613-2.3574 2.3613h-6.4102c-1.3102 0-2.3613-1.055-2.3613-2.3613v-11.129c0-1.3102 1.0511-2.3633 2.3613-2.3633zm25.104 0h6.4082c1.3102 0 2.3613 1.0531 2.3613 2.3633v11.129c0 1.3064-1.0511 2.3613-2.3613 2.3613h-6.4082c-1.3064 0-2.3594-1.055-2.3594-2.3613v-11.129c0-1.3102 1.053-2.3633 2.3594-2.3633zm25.105 0h6.4082c1.3102 0 2.3633 1.0531 2.3633 2.3633v11.129c0 1.3064-1.0531 2.3613-2.3633 2.3613h-6.4082c-1.3064 0-2.3574-1.055-2.3574-2.3613v-11.129c0-1.3102 1.0511-2.3633 2.3574-2.3633zm25.105 0h6.4082c1.3064 0 2.3633 1.0531 2.3633 2.3633v11.129c0 1.3064-1.0569 2.3613-2.3633 2.3613h-6.4082c-1.3064 0-2.3574-1.055-2.3574-2.3613v-11.129c0-1.3102 1.0511-2.3633 2.3574-2.3633zm25.096 0h6.4082c1.3102 0 2.3613 1.0531 2.3613 2.3633v11.129c0 1.3064-1.0511 2.3613-2.3613 2.3613h-6.4082c-1.3064 0-2.3594-1.055-2.3594-2.3613v-11.129c0-1.3102 1.053-2.3633 2.3594-2.3633zm25.105 0h6.4082c1.3064 0 2.3613 1.0531 2.3613 2.3633v11.129c0 1.3064-1.055 2.3613-2.3613 2.3613h-6.4082c-1.3064 0-2.3594-1.055-2.3594-2.3613v-11.129c0-1.3102 1.053-2.3633 2.3594-2.3633zm24.283 0h6.4082c1.3079 0 2.3613 1.0531 2.3613 2.3633v11.129c0 1.3064-1.0534 2.3613-2.3613 2.3613h-6.4082c-1.3079 0-2.3613-1.055-2.3613-2.3613v-11.129c0-1.3102 1.0534-2.3633 2.3613-2.3633zm25.107 0h6.4043c1.3102 0 2.3633 1.0531 2.3633 2.3633v11.129c0 1.3064-1.0531 2.3613-2.3633 2.3613h-6.4043c-1.3102 0-2.3613-1.055-2.3613-2.3613v-11.129c0-1.3102 1.0511-2.3633 2.3613-2.3633zm25.094 0h6.4102c1.3064 0 2.3574 1.0531 2.3574 2.3633v11.129c0 1.3064-1.0511 2.3613-2.3574 2.3613h-6.4102c-1.3102 0-2.3613-1.055-2.3613-2.3613v-11.129c0-1.3102 1.0511-2.3633 2.3613-2.3633zm25.104 0h6.4082c1.3102 0 2.3613 1.0531 2.3613 2.3633v11.129c0 1.3064-1.0511 2.3613-2.3613 2.3613h-6.4082c-1.3064 0-2.3594-1.055-2.3594-2.3613v-11.129c0-1.3102 1.053-2.3633 2.3594-2.3633zm25.105 0h6.4082c1.3102 0 2.3633 1.0531 2.3633 2.3633v11.129c0 1.3064-1.0531 2.3613-2.3633 2.3613h-6.4082c-1.3064 0-2.3574-1.055-2.3574-2.3613v-11.129c0-1.3102 1.0511-2.3633 2.3574-2.3633zm25.105 0h6.4082c1.3064 0 2.3633 1.0531 2.3633 2.3633v11.129c0 1.3064-1.0569 2.3613-2.3633 2.3613h-6.4082c-1.3064 0-2.3574-1.055-2.3574-2.3613v-11.129c0-1.3102 1.0511-2.3633 2.3574-2.3633zm25.096 0h6.4082c1.3102 0 2.3613 1.0531 2.3613 2.3633v11.129c0 1.3064-1.0511 2.3613-2.3613 2.3613h-6.4082c-1.3064 0-2.3594-1.055-2.3594-2.3613v-11.129c0-1.3102 1.053-2.3633 2.3594-2.3633zm25.105 0h6.4082c1.3064 0 2.3613 1.0531 2.3613 2.3633v11.129c0 1.3064-1.055 2.3613-2.3613 2.3613h-6.4082c-1.3064 0-2.3594-1.055-2.3594-2.3613v-11.129c0-1.3102 1.053-2.3633 2.3594-2.3633zm24.283 0h6.4082c1.3079 0 2.3613 1.0531 2.3613 2.3633v11.129c0 1.3064-1.0534 2.3613-2.3613 2.3613h-6.4082c-1.3079 0-2.3613-1.055-2.3613-2.3613v-11.129c0-1.3102 1.0534-2.3633 2.3613-2.3633zm25.107 0h6.4043c1.3102 0 2.3633 1.0531 2.3633 2.3633v11.129c0 1.3064-1.0531 2.3613-2.3633 2.3613h-6.4043c-1.3102 0-2.3613-1.055-2.3613-2.3613v-11.129c0-1.3102 1.0511-2.3633 2.3613-2.3633zm25.094 0h6.4102c1.3064 0 2.3574 1.0531 2.3574 2.3633v11.129c0 1.3064-1.0511 2.3613-2.3574 2.3613h-6.4102c-1.3102 0-2.3613-1.055-2.3613-2.3613v-11.129c0-1.3102 1.0511-2.3633 2.3613-2.3633zm25.104 0h6.4082c1.3102 0 2.3613 1.0531 2.3613 2.3633v11.129c0 1.3064-1.0511 2.3613-2.3613 2.3613h-6.4082c-1.3064 0-2.3594-1.055-2.3594-2.3613v-11.129c0-1.3102 1.053-2.3633 2.3594-2.3633zm25.105 0h6.4082c1.3102 0 2.3633 1.0531 2.3633 2.3633v11.129c0 1.3064-1.0531 2.3613-2.3633 2.3613h-6.4082c-1.3064 0-2.3574-1.055-2.3574-2.3613v-11.129c0-1.3102 1.0511-2.3633 2.3574-2.3633zm25.105 0h6.4082c1.3064 0 2.3633 1.0531 2.3633 2.3633v11.129c0 1.3064-1.0569 2.3613-2.3633 2.3613h-6.4082c-1.3064 0-2.3574-1.055-2.3574-2.3613v-11.129c0-1.3102 1.0511-2.3633 2.3574-2.3633zm25.096 0h6.4082c1.3102 0 2.3613 1.0531 2.3613 2.3633v11.129c0 1.3064-1.0511 2.3613-2.3613 2.3613h-6.4082c-1.3064 0-2.3594-1.055-2.3594-2.3613v-11.129c0-1.3102 1.053-2.3633 2.3594-2.3633zm25.105 0h6.4082c1.3064 0 2.3613 1.0531 2.3613 2.3633v11.129c0 1.3064-1.055 2.3613-2.3613 2.3613h-6.4082c-1.3064 0-2.3594-1.055-2.3594-2.3613v-11.129c0-1.3102 1.053-2.3633 2.3594-2.3633zm24.283 0h6.4082c1.3079 0 2.3613 1.0531 2.3613 2.3633v11.129c0 1.3064-1.0534 2.3613-2.3613 2.3613h-6.4082c-1.3079 0-2.3613-1.055-2.3613-2.3613v-11.129c0-1.3102 1.0534-2.3633 2.3613-2.3633zm25.107 0h6.4043c1.3102 0 2.3633 1.0531 2.3633 2.3633v11.129c0 1.3064-1.0531 2.3613-2.3633 2.3613h-6.4043c-1.3102 0-2.3613-1.055-2.3613-2.3613v-11.129c0-1.3102 1.0511-2.3633 2.3613-2.3633zm25.094 0h6.4102c1.3064 0 2.3574 1.0531 2.3574 2.3633v11.129c0 1.3064-1.0511 2.3613-2.3574 2.3613h-6.4102c-1.3102 0-2.3613-1.055-2.3613-2.3613v-11.129c0-1.3102 1.0511-2.3633 2.3613-2.3633zm25.104 0h6.4082c1.3102 0 2.3613 1.0531 2.3613 2.3633v11.129c0 1.3064-1.0511 2.3613-2.3613 2.3613h-6.4082c-1.3064 0-2.3594-1.055-2.3594-2.3613v-11.129c0-1.3102 1.053-2.3633 2.3594-2.3633zm25.105 0h6.4082c1.3102 0 2.3633 1.0531 2.3633 2.3633v11.129c0 1.3064-1.0531 2.3613-2.3633 2.3613h-6.4082c-1.3064 0-2.3574-1.055-2.3574-2.3613v-11.129c0-1.3102 1.0511-2.3633 2.3574-2.3633zm25.105 0h6.4082c1.3064 0 2.3633 1.0531 2.3633 2.3633v11.129c0 1.3064-1.0569 2.3613-2.3633 2.3613h-6.4082c-1.3064 0-2.3574-1.055-2.3574-2.3613v-11.129c0-1.3102 1.0511-2.3633 2.3574-2.3633zm25.096 0h6.4082c1.3102 0 2.3613 1.0531 2.3613 2.3633v11.129c0 1.3064-1.0511 2.3613-2.3613 2.3613h-6.4082c-1.3064 0-2.3594-1.055-2.3594-2.3613v-11.129c0-1.3102 1.053-2.3633 2.3594-2.3633zm25.105 0h6.4082c1.3064 0 2.3613 1.0531 2.3613 2.3633v11.129c0 1.3064-1.055 2.3613-2.3613 2.3613h-6.4082c-1.3064 0-2.3594-1.055-2.3594-2.3613v-11.129c0-1.3102 1.053-2.3633 2.3594-2.3633zm-1577.4 18.887h181.79c2.6166 0 4.7207 2.108 4.7207 4.7246v115.68c0 2.6166-2.1041 4.7246-4.7207 4.7246h-181.79c-2.6154 0-4.7227-2.108-4.7227-4.7246v-115.68c0-2.6166 2.1069-4.7246 4.7227-4.7246zm200 0h181.79c2.6166 0 4.7207 2.108 4.7207 4.7246v115.68c0 2.6166-2.1041 4.7246-4.7207 4.7246h-181.79c-2.6154 0-4.7227-2.108-4.7227-4.7246v-115.68c0-2.6166 2.1069-4.7246 4.7227-4.7246zm200 0h181.79c2.6166 0 4.7207 2.108 4.7207 4.7246v115.68c0 2.6166-2.1041 4.7246-4.7207 4.7246h-181.79c-2.6154 0-4.7227-2.108-4.7227-4.7246v-115.68c0-2.6166 2.1069-4.7246 4.7227-4.7246zm200 0h181.79c2.6166 0 4.7207 2.108 4.7207 4.7246v115.68c0 2.6166-2.1041 4.7246-4.7207 4.7246h-181.79c-2.6154 0-4.7227-2.108-4.7227-4.7246v-115.68c0-2.6166 2.1069-4.7246 4.7227-4.7246zm200 0h181.79c2.6166 0 4.7207 2.108 4.7207 4.7246v115.68c0 2.6166-2.1041 4.7246-4.7207 4.7246h-181.79c-2.6154 0-4.7227-2.108-4.7227-4.7246v-115.68c0-2.6166 2.1069-4.7246 4.7227-4.7246zm200 0h181.79c2.6166 0 4.7207 2.108 4.7207 4.7246v115.68c0 2.6166-2.1041 4.7246-4.7207 4.7246h-181.79c-2.6154 0-4.7227-2.108-4.7227-4.7246v-115.68c0-2.6166 2.1069-4.7246 4.7227-4.7246zm200 0h181.79c2.6166 0 4.7207 2.108 4.7207 4.7246v115.68c0 2.6166-2.1041 4.7246-4.7207 4.7246h-181.79c-2.6154 0-4.7227-2.108-4.7227-4.7246v-115.68c0-2.6166 2.1069-4.7246 4.7227-4.7246zm200 0h181.79c2.6166 0 4.7207 2.108 4.7207 4.7246v115.68c0 2.6166-2.1041 4.7246-4.7207 4.7246h-181.79c-2.6154 0-4.7227-2.108-4.7227-4.7246v-115.68c0-2.6166 2.1069-4.7246 4.7227-4.7246zm-1398.7 128.84h6.4082c1.3079 0 2.3613 1.055 2.3613 2.3613v11.131c0 1.3102-1.0534 2.3613-2.3613 2.3613h-6.4082c-1.3083 0-2.3594-1.0511-2.3594-2.3613v-11.131c0-1.3064 1.0511-2.3613 2.3594-2.3613zm25.105 0h6.4082c1.3064 0 2.3633 1.055 2.3633 2.3613v11.131c0 1.3102-1.0569 2.3613-2.3633 2.3613h-6.4082c-1.3064 0-2.3613-1.0511-2.3613-2.3613v-11.131c0-1.3064 1.055-2.3613 2.3613-2.3613zm25.096 0h6.4082c1.3064 0 2.3613 1.055 2.3613 2.3613v11.131c0 1.3102-1.055 2.3613-2.3613 2.3613h-6.4082c-1.3064 0-2.3633-1.0511-2.3633-2.3613v-11.131c0-1.3064 1.0569-2.3613 2.3633-2.3613zm25.105 0h6.4082c1.3064 0 2.3633 1.055 2.3633 2.3613v11.131c0 1.3102-1.0569 2.3613-2.3633 2.3613h-6.4082c-1.3064 0-2.3633-1.0511-2.3633-2.3613v-11.131c0-1.3064 1.0569-2.3613 2.3633-2.3613zm25.105 0h6.4082c1.3064 0 2.3594 1.055 2.3594 2.3613v11.131c0 1.3102-1.053 2.3613-2.3594 2.3613h-6.4082c-1.3102 0-2.3613-1.0511-2.3613-2.3613v-11.131c0-1.3064 1.0511-2.3613 2.3613-2.3613zm25.105 0h6.4102c1.3064 0 2.3574 1.055 2.3574 2.3613v11.131c0 1.3102-1.0511 2.3613-2.3574 2.3613h-6.4102c-1.3102 0-2.3613-1.0511-2.3613-2.3613v-11.131c0-1.3064 1.0511-2.3613 2.3613-2.3613zm25.096 0h6.4082c1.3064 0 2.3574 1.055 2.3574 2.3613v11.131c0 1.3102-1.0511 2.3613-2.3574 2.3613h-6.4082c-1.3102 0-2.3633-1.0511-2.3633-2.3613v-11.131c0-1.3064 1.0531-2.3613 2.3633-2.3613zm25.105 0h6.4082c1.3064 0 2.3594 1.055 2.3594 2.3613v11.131c0 1.3102-1.053 2.3613-2.3594 2.3613h-6.4082c-1.3102 0-2.3613-1.0511-2.3613-2.3613v-11.131c0-1.3064 1.0511-2.3613 2.3613-2.3613zm24.281 0h6.4082c1.3079 0 2.3613 1.055 2.3613 2.3613v11.131c0 1.3102-1.0534 2.3613-2.3613 2.3613h-6.4082c-1.3083 0-2.3594-1.0511-2.3594-2.3613v-11.131c0-1.3064 1.0511-2.3613 2.3594-2.3613zm25.105 0h6.4082c1.3064 0 2.3633 1.055 2.3633 2.3613v11.131c0 1.3102-1.0569 2.3613-2.3633 2.3613h-6.4082c-1.3064 0-2.3613-1.0511-2.3613-2.3613v-11.131c0-1.3064 1.055-2.3613 2.3613-2.3613zm25.096 0h6.4082c1.3064 0 2.3613 1.055 2.3613 2.3613v11.131c0 1.3102-1.055 2.3613-2.3613 2.3613h-6.4082c-1.3064 0-2.3633-1.0511-2.3633-2.3613v-11.131c0-1.3064 1.0569-2.3613 2.3633-2.3613zm25.105 0h6.4082c1.3064 0 2.3633 1.055 2.3633 2.3613v11.131c0 1.3102-1.0569 2.3613-2.3633 2.3613h-6.4082c-1.3064 0-2.3633-1.0511-2.3633-2.3613v-11.131c0-1.3064 1.0569-2.3613 2.3633-2.3613zm25.105 0h6.4082c1.3064 0 2.3594 1.055 2.3594 2.3613v11.131c0 1.3102-1.053 2.3613-2.3594 2.3613h-6.4082c-1.3102 0-2.3613-1.0511-2.3613-2.3613v-11.131c0-1.3064 1.0511-2.3613 2.3613-2.3613zm25.105 0h6.4102c1.3064 0 2.3574 1.055 2.3574 2.3613v11.131c0 1.3102-1.0511 2.3613-2.3574 2.3613h-6.4102c-1.3102 0-2.3613-1.0511-2.3613-2.3613v-11.131c0-1.3064 1.0511-2.3613 2.3613-2.3613zm25.096 0h6.4082c1.3064 0 2.3574 1.055 2.3574 2.3613v11.131c0 1.3102-1.0511 2.3613-2.3574 2.3613h-6.4082c-1.3102 0-2.3633-1.0511-2.3633-2.3613v-11.131c0-1.3064 1.0531-2.3613 2.3633-2.3613zm25.105 0h6.4082c1.3064 0 2.3594 1.055 2.3594 2.3613v11.131c0 1.3102-1.053 2.3613-2.3594 2.3613h-6.4082c-1.3102 0-2.3613-1.0511-2.3613-2.3613v-11.131c0-1.3064 1.0511-2.3613 2.3613-2.3613zm24.281 0h6.4082c1.3079 0 2.3613 1.055 2.3613 2.3613v11.131c0 1.3102-1.0534 2.3613-2.3613 2.3613h-6.4082c-1.3083 0-2.3594-1.0511-2.3594-2.3613v-11.131c0-1.3064 1.0511-2.3613 2.3594-2.3613zm25.105 0h6.4082c1.3064 0 2.3633 1.055 2.3633 2.3613v11.131c0 1.3102-1.0569 2.3613-2.3633 2.3613h-6.4082c-1.3064 0-2.3613-1.0511-2.3613-2.3613v-11.131c0-1.3064 1.055-2.3613 2.3613-2.3613zm25.096 0h6.4082c1.3064 0 2.3613 1.055 2.3613 2.3613v11.131c0 1.3102-1.055 2.3613-2.3613 2.3613h-6.4082c-1.3064 0-2.3633-1.0511-2.3633-2.3613v-11.131c0-1.3064 1.0569-2.3613 2.3633-2.3613zm25.105 0h6.4082c1.3064 0 2.3633 1.055 2.3633 2.3613v11.131c0 1.3102-1.0569 2.3613-2.3633 2.3613h-6.4082c-1.3064 0-2.3633-1.0511-2.3633-2.3613v-11.131c0-1.3064 1.0569-2.3613 2.3633-2.3613zm25.105 0h6.4082c1.3064 0 2.3594 1.055 2.3594 2.3613v11.131c0 1.3102-1.053 2.3613-2.3594 2.3613h-6.4082c-1.3102 0-2.3613-1.0511-2.3613-2.3613v-11.131c0-1.3064 1.0511-2.3613 2.3613-2.3613zm25.105 0h6.4102c1.3064 0 2.3574 1.055 2.3574 2.3613v11.131c0 1.3102-1.0511 2.3613-2.3574 2.3613h-6.4102c-1.3102 0-2.3613-1.0511-2.3613-2.3613v-11.131c0-1.3064 1.0511-2.3613 2.3613-2.3613zm25.096 0h6.4082c1.3064 0 2.3574 1.055 2.3574 2.3613v11.131c0 1.3102-1.0511 2.3613-2.3574 2.3613h-6.4082c-1.3102 0-2.3633-1.0511-2.3633-2.3613v-11.131c0-1.3064 1.0531-2.3613 2.3633-2.3613zm25.105 0h6.4082c1.3064 0 2.3594 1.055 2.3594 2.3613v11.131c0 1.3102-1.053 2.3613-2.3594 2.3613h-6.4082c-1.3102 0-2.3613-1.0511-2.3613-2.3613v-11.131c0-1.3064 1.0511-2.3613 2.3613-2.3613zm24.281 0h6.4082c1.3079 0 2.3613 1.055 2.3613 2.3613v11.131c0 1.3102-1.0534 2.3613-2.3613 2.3613h-6.4082c-1.3083 0-2.3594-1.0511-2.3594-2.3613v-11.131c0-1.3064 1.0511-2.3613 2.3594-2.3613zm25.105 0h6.4082c1.3064 0 2.3633 1.055 2.3633 2.3613v11.131c0 1.3102-1.0569 2.3613-2.3633 2.3613h-6.4082c-1.3064 0-2.3613-1.0511-2.3613-2.3613v-11.131c0-1.3064 1.055-2.3613 2.3613-2.3613zm25.096 0h6.4082c1.3064 0 2.3613 1.055 2.3613 2.3613v11.131c0 1.3102-1.055 2.3613-2.3613 2.3613h-6.4082c-1.3064 0-2.3633-1.0511-2.3633-2.3613v-11.131c0-1.3064 1.0569-2.3613 2.3633-2.3613zm25.105 0h6.4082c1.3064 0 2.3633 1.055 2.3633 2.3613v11.131c0 1.3102-1.0569 2.3613-2.3633 2.3613h-6.4082c-1.3064 0-2.3633-1.0511-2.3633-2.3613v-11.131c0-1.3064 1.0569-2.3613 2.3633-2.3613zm25.105 0h6.4082c1.3064 0 2.3594 1.055 2.3594 2.3613v11.131c0 1.3102-1.053 2.3613-2.3594 2.3613h-6.4082c-1.3102 0-2.3613-1.0511-2.3613-2.3613v-11.131c0-1.3064 1.0511-2.3613 2.3613-2.3613zm25.105 0h6.4102c1.3064 0 2.3574 1.055 2.3574 2.3613v11.131c0 1.3102-1.0511 2.3613-2.3574 2.3613h-6.4102c-1.3102 0-2.3613-1.0511-2.3613-2.3613v-11.131c0-1.3064 1.0511-2.3613 2.3613-2.3613zm25.096 0h6.4082c1.3064 0 2.3574 1.055 2.3574 2.3613v11.131c0 1.3102-1.0511 2.3613-2.3574 2.3613h-6.4082c-1.3102 0-2.3633-1.0511-2.3633-2.3613v-11.131c0-1.3064 1.0531-2.3613 2.3633-2.3613zm25.105 0h6.4082c1.3064 0 2.3594 1.055 2.3594 2.3613v11.131c0 1.3102-1.053 2.3613-2.3594 2.3613h-6.4082c-1.3102 0-2.3613-1.0511-2.3613-2.3613v-11.131c0-1.3064 1.0511-2.3613 2.3613-2.3613zm24.281 0h6.4082c1.3079 0 2.3613 1.055 2.3613 2.3613v11.131c0 1.3102-1.0534 2.3613-2.3613 2.3613h-6.4082c-1.3083 0-2.3594-1.0511-2.3594-2.3613v-11.131c0-1.3064 1.0511-2.3613 2.3594-2.3613zm25.105 0h6.4082c1.3064 0 2.3633 1.055 2.3633 2.3613v11.131c0 1.3102-1.0569 2.3613-2.3633 2.3613h-6.4082c-1.3064 0-2.3613-1.0511-2.3613-2.3613v-11.131c0-1.3064 1.055-2.3613 2.3613-2.3613zm25.096 0h6.4082c1.3064 0 2.3613 1.055 2.3613 2.3613v11.131c0 1.3102-1.055 2.3613-2.3613 2.3613h-6.4082c-1.3064 0-2.3633-1.0511-2.3633-2.3613v-11.131c0-1.3064 1.0569-2.3613 2.3633-2.3613zm25.105 0h6.4082c1.3064 0 2.3633 1.055 2.3633 2.3613v11.131c0 1.3102-1.0569 2.3613-2.3633 2.3613h-6.4082c-1.3064 0-2.3633-1.0511-2.3633-2.3613v-11.131c0-1.3064 1.0569-2.3613 2.3633-2.3613zm25.105 0h6.4082c1.3064 0 2.3594 1.055 2.3594 2.3613v11.131c0 1.3102-1.053 2.3613-2.3594 2.3613h-6.4082c-1.3102 0-2.3613-1.0511-2.3613-2.3613v-11.131c0-1.3064 1.0511-2.3613 2.3613-2.3613zm25.105 0h6.4102c1.3064 0 2.3574 1.055 2.3574 2.3613v11.131c0 1.3102-1.0511 2.3613-2.3574 2.3613h-6.4102c-1.3102 0-2.3613-1.0511-2.3613-2.3613v-11.131c0-1.3064 1.0511-2.3613 2.3613-2.3613zm25.096 0h6.4082c1.3064 0 2.3574 1.055 2.3574 2.3613v11.131c0 1.3102-1.0511 2.3613-2.3574 2.3613h-6.4082c-1.3102 0-2.3633-1.0511-2.3633-2.3613v-11.131c0-1.3064 1.0531-2.3613 2.3633-2.3613zm25.105 0h6.4082c1.3064 0 2.3594 1.055 2.3594 2.3613v11.131c0 1.3102-1.053 2.3613-2.3594 2.3613h-6.4082c-1.3102 0-2.3613-1.0511-2.3613-2.3613v-11.131c0-1.3064 1.0511-2.3613 2.3613-2.3613zm24.281 0h6.4082c1.3079 0 2.3613 1.055 2.3613 2.3613v11.131c0 1.3102-1.0534 2.3613-2.3613 2.3613h-6.4082c-1.3083 0-2.3594-1.0511-2.3594-2.3613v-11.131c0-1.3064 1.0511-2.3613 2.3594-2.3613zm25.105 0h6.4082c1.3064 0 2.3633 1.055 2.3633 2.3613v11.131c0 1.3102-1.0569 2.3613-2.3633 2.3613h-6.4082c-1.3064 0-2.3613-1.0511-2.3613-2.3613v-11.131c0-1.3064 1.055-2.3613 2.3613-2.3613zm25.096 0h6.4082c1.3064 0 2.3613 1.055 2.3613 2.3613v11.131c0 1.3102-1.055 2.3613-2.3613 2.3613h-6.4082c-1.3064 0-2.3633-1.0511-2.3633-2.3613v-11.131c0-1.3064 1.0569-2.3613 2.3633-2.3613zm25.105 0h6.4082c1.3064 0 2.3633 1.055 2.3633 2.3613v11.131c0 1.3102-1.0569 2.3613-2.3633 2.3613h-6.4082c-1.3064 0-2.3633-1.0511-2.3633-2.3613v-11.131c0-1.3064 1.0569-2.3613 2.3633-2.3613zm25.105 0h6.4082c1.3064 0 2.3594 1.055 2.3594 2.3613v11.131c0 1.3102-1.053 2.3613-2.3594 2.3613h-6.4082c-1.3102 0-2.3613-1.0511-2.3613-2.3613v-11.131c0-1.3064 1.0511-2.3613 2.3613-2.3613zm25.105 0h6.4102c1.3064 0 2.3574 1.055 2.3574 2.3613v11.131c0 1.3102-1.0511 2.3613-2.3574 2.3613h-6.4102c-1.3102 0-2.3613-1.0511-2.3613-2.3613v-11.131c0-1.3064 1.0511-2.3613 2.3613-2.3613zm25.096 0h6.4082c1.3064 0 2.3574 1.055 2.3574 2.3613v11.131c0 1.3102-1.0511 2.3613-2.3574 2.3613h-6.4082c-1.3102 0-2.3633-1.0511-2.3633-2.3613v-11.131c0-1.3064 1.0531-2.3613 2.3633-2.3613zm25.105 0h6.4082c1.3064 0 2.3594 1.055 2.3594 2.3613v11.131c0 1.3102-1.053 2.3613-2.3594 2.3613h-6.4082c-1.3102 0-2.3613-1.0511-2.3613-2.3613v-11.131c0-1.3064 1.0511-2.3613 2.3613-2.3613zm24.281 0h6.4082c1.3079 0 2.3613 1.055 2.3613 2.3613v11.131c0 1.3102-1.0534 2.3613-2.3613 2.3613h-6.4082c-1.3083 0-2.3594-1.0511-2.3594-2.3613v-11.131c0-1.3064 1.0511-2.3613 2.3594-2.3613zm25.105 0h6.4082c1.3064 0 2.3633 1.055 2.3633 2.3613v11.131c0 1.3102-1.0569 2.3613-2.3633 2.3613h-6.4082c-1.3064 0-2.3613-1.0511-2.3613-2.3613v-11.131c0-1.3064 1.055-2.3613 2.3613-2.3613zm25.096 0h6.4082c1.3064 0 2.3613 1.055 2.3613 2.3613v11.131c0 1.3102-1.055 2.3613-2.3613 2.3613h-6.4082c-1.3064 0-2.3633-1.0511-2.3633-2.3613v-11.131c0-1.3064 1.0569-2.3613 2.3633-2.3613zm25.105 0h6.4082c1.3064 0 2.3633 1.055 2.3633 2.3613v11.131c0 1.3102-1.0569 2.3613-2.3633 2.3613h-6.4082c-1.3064 0-2.3633-1.0511-2.3633-2.3613v-11.131c0-1.3064 1.0569-2.3613 2.3633-2.3613zm25.105 0h6.4082c1.3064 0 2.3594 1.055 2.3594 2.3613v11.131c0 1.3102-1.053 2.3613-2.3594 2.3613h-6.4082c-1.3102 0-2.3613-1.0511-2.3613-2.3613v-11.131c0-1.3064 1.0511-2.3613 2.3613-2.3613zm25.105 0h6.4102c1.3064 0 2.3574 1.055 2.3574 2.3613v11.131c0 1.3102-1.0511 2.3613-2.3574 2.3613h-6.4102c-1.3102 0-2.3613-1.0511-2.3613-2.3613v-11.131c0-1.3064 1.0511-2.3613 2.3613-2.3613zm25.096 0h6.4082c1.3064 0 2.3574 1.055 2.3574 2.3613v11.131c0 1.3102-1.0511 2.3613-2.3574 2.3613h-6.4082c-1.3102 0-2.3633-1.0511-2.3633-2.3613v-11.131c0-1.3064 1.0531-2.3613 2.3633-2.3613zm25.105 0h6.4082c1.3064 0 2.3594 1.055 2.3594 2.3613v11.131c0 1.3102-1.053 2.3613-2.3594 2.3613h-6.4082c-1.3102 0-2.3613-1.0511-2.3613-2.3613v-11.131c0-1.3064 1.0511-2.3613 2.3613-2.3613zm24.281 0h6.4082c1.3079 0 2.3613 1.055 2.3613 2.3613v11.131c0 1.3102-1.0534 2.3613-2.3613 2.3613h-6.4082c-1.3083 0-2.3594-1.0511-2.3594-2.3613v-11.131c0-1.3064 1.0511-2.3613 2.3594-2.3613zm25.105 0h6.4082c1.3064 0 2.3633 1.055 2.3633 2.3613v11.131c0 1.3102-1.0569 2.3613-2.3633 2.3613h-6.4082c-1.3064 0-2.3613-1.0511-2.3613-2.3613v-11.131c0-1.3064 1.055-2.3613 2.3613-2.3613zm25.096 0h6.4082c1.3064 0 2.3613 1.055 2.3613 2.3613v11.131c0 1.3102-1.055 2.3613-2.3613 2.3613h-6.4082c-1.3064 0-2.3633-1.0511-2.3633-2.3613v-11.131c0-1.3064 1.0569-2.3613 2.3633-2.3613zm25.105 0h6.4082c1.3064 0 2.3633 1.055 2.3633 2.3613v11.131c0 1.3102-1.0569 2.3613-2.3633 2.3613h-6.4082c-1.3064 0-2.3633-1.0511-2.3633-2.3613v-11.131c0-1.3064 1.0569-2.3613 2.3633-2.3613zm25.105 0h6.4082c1.3064 0 2.3594 1.055 2.3594 2.3613v11.131c0 1.3102-1.053 2.3613-2.3594 2.3613h-6.4082c-1.3102 0-2.3613-1.0511-2.3613-2.3613v-11.131c0-1.3064 1.0511-2.3613 2.3613-2.3613zm25.105 0h6.4102c1.3064 0 2.3574 1.055 2.3574 2.3613v11.131c0 1.3102-1.0511 2.3613-2.3574 2.3613h-6.4102c-1.3102 0-2.3613-1.0511-2.3613-2.3613v-11.131c0-1.3064 1.0511-2.3613 2.3613-2.3613zm25.096 0h6.4082c1.3064 0 2.3574 1.055 2.3574 2.3613v11.131c0 1.3102-1.0511 2.3613-2.3574 2.3613h-6.4082c-1.3102 0-2.3633-1.0511-2.3633-2.3613v-11.131c0-1.3064 1.0531-2.3613 2.3633-2.3613zm25.105 0h6.4082c1.3064 0 2.3594 1.055 2.3594 2.3613v11.131c0 1.3102-1.053 2.3613-2.3594 2.3613h-6.4082c-1.3102 0-2.3613-1.0511-2.3613-2.3613v-11.131c0-1.3064 1.0511-2.3613 2.3613-2.3613z"/>
</g>
</svg>
